<?xml version="1.0" encoding="iso-8859-1"?>
<!-- Uploaded to: SVG Repo, www.svgrepo.com, Generator: SVG Repo Mixer Tools -->
<svg fill="#000000" height="800px" width="800px" version="1.1" id="Layer_1" xmlns="http://www.w3.org/2000/svg" xmlns:xlink="http://www.w3.org/1999/xlink" 
	 viewBox="0 0 503.212 503.212" xml:space="preserve">
<g transform="translate(2 1)">
	<g>
		<path d="M491.728,92.394c-10.072-17.626-30.216-39.449-69.666-40.289c-47.003-0.839-92.328,58.754-116.669,91.489
			c-1.373,1.716-2.742,3.429-4.058,5.087c-14.219-11.057-32.039-17.677-51.339-17.677c-19.486,0-37.461,6.748-51.747,17.998
			c-1.445-1.862-2.965-3.961-4.489-6.247c-24.341-31.895-69.666-92.328-116.669-91.489C36.803,52.105,17.499,73.928,7.426,91.554
			c-8.393,16.787-10.072,65.469-9.233,78.898c0.839,4.197,0.839,10.911,0.839,19.305C-0.128,231.725,1.551,310.623,30.928,340
			c12.59,12.59,29.377,18.466,48.682,18.466c10.705,0,21.412-1.622,32.909-5.646l-21.998,43.416
			c-0.839,2.518-0.839,5.875,0.839,8.393c2.518,2.518,5.036,4.197,8.393,3.357l52.879-8.393l22.662,45.325
			c1.679,3.357,4.197,5.036,7.554,5.036s6.715-1.679,5.875-3.357l60.806-136.813l60.06,135.134c0.839,3.357,4.197,5.036,7.554,5.036
			c3.357,0,5.875-1.679,5.875-5.036l22.662-45.325l52.879,7.554c3.357,0.839,6.715-0.839,8.393-3.357
			c1.679-2.518,2.518-5.875,0.839-8.393l-21.833-43.091c0.283,0.092,0.567,0.195,0.849,0.284
			c11.751,4.197,22.662,5.875,33.574,5.875c19.305,0,36.931-5.875,47.843-17.626c29.377-29.377,31.056-108.275,31.895-150.243
			c0-8.393,0.839-15.108,0.839-19.305C501.8,157.863,500.961,108.341,491.728,92.394z M317.111,213.632
			c-0.144,0.842-0.14,1.679-0.009,2.489c-0.429,14.357-5.407,27.881-14.227,39.106c-0.564,0.846-0.927,1.594-1.175,2.314
			c-0.385,0.485-0.761,0.981-1.158,1.452c-0.122,0.139-0.241,0.281-0.364,0.419c-0.285,0.332-0.584,0.647-0.874,0.972
			c-10.818,11.723-25.727,19.621-42.403,21.345c-0.169,0.017-0.339,0.027-0.508,0.042c-0.933,0.089-1.87,0.165-2.813,0.216
			c-1.189,0.06-2.383,0.099-3.584,0.099c-20.932,0-39.7-9.713-52.039-24.848c-0.22-0.42-0.486-0.818-0.84-1.172
			c-3.994-5.083-7.199-10.639-9.554-16.529c-0.053-0.134-0.107-0.267-0.159-0.401c-0.267-0.68-0.52-1.364-0.764-2.053
			c-0.118-0.335-0.231-0.673-0.344-1.01c-0.189-0.561-0.376-1.123-0.549-1.689c-0.177-0.581-0.34-1.167-0.501-1.755
			c-0.1-0.363-0.21-0.723-0.304-1.089c-0.25-0.973-0.477-1.954-0.684-2.943c-0.057-0.275-0.104-0.553-0.158-0.828
			c-0.146-0.747-0.284-1.496-0.405-2.251c-0.055-0.345-0.103-0.691-0.153-1.038c-0.101-0.7-0.191-1.403-0.27-2.109
			c-0.04-0.36-0.079-0.719-0.113-1.08c-0.07-0.732-0.124-1.469-0.169-2.207c-0.02-0.323-0.046-0.645-0.061-0.969
			c-0.029-0.62-0.036-1.246-0.048-1.871c0.148-0.866,0.141-1.727-0.001-2.558c0.676-36.357,30.604-65.896,67.116-65.896
			C286.49,147.791,316.406,177.299,317.111,213.632z M42.679,328.25c-24.341-24.341-26.02-101.561-26.859-138.492
			c0-8.393-0.839-15.948-0.839-20.144c-0.839-15.108,1.679-57.915,7.554-68.826c10.911-20.984,29.377-31.056,56.236-31.895
			c37.77,0,79.738,55.397,102.4,85.613c1.581,2.371,3.162,4.734,4.743,6.404c-4.652,5.505-8.616,11.604-11.746,18.174
			c-3.185,6.488-5.429,13.359-6.735,20.526l-46.695-33.354c-4.197-3.357-9.233-2.518-11.751,1.679
			c-3.357,4.197-1.679,9.233,1.679,11.751l49.353,35.252l-49.353,35.253c-3.357,2.518-4.197,8.393-1.679,11.751
			c1.679,2.518,4.197,3.357,6.715,3.357c1.679,0,3.357-0.839,5.036-1.679l46.682-33.344c1.787,9.875,5.352,19.157,10.693,27.847
			c0.203,0.336,0.417,0.664,0.624,0.997c0.299,0.473,0.599,0.945,0.909,1.414c0.388,0.595,0.774,1.189,1.177,1.774
			c-1.543,8.484-4.654,16.788-9.113,24.673c-14.346,24.385-40.423,41.95-63.561,49.663C81.289,345.036,56.948,342.518,42.679,328.25
			z M182.849,422.256l-17.626-34.413c-1.679-3.357-4.197-5.036-7.554-5.036h-0.839l-42.807,5.875l23.502-46.164
			c28.35-15.009,48.412-38.303,57.726-64.119c11.883,10.273,26.641,17.286,42.869,19.612c0.042,0.007,0.084,0.015,0.126,0.022
			L182.849,422.256z M344.003,383.646c-3.357-0.839-6.715,0.839-8.393,4.197l-17.626,34.413l-55.397-124.223
			c15.948-2.518,31.056-9.233,42.807-19.305c9.233,26.02,29.377,49.521,57.915,64.63l23.502,46.164L344.003,383.646z
			 M485.013,169.613c-0.839,4.197-0.839,11.751-0.839,20.144c-0.839,36.931-2.518,114.151-26.859,138.492
			c-14.269,14.269-38.61,16.787-65.469,8.393c-30.213-10.071-65.461-36.925-73.02-73.85c0.521-0.746,1.029-1.501,1.526-2.264
			c0.303-0.458,0.595-0.92,0.888-1.381c0.217-0.347,0.439-0.69,0.651-1.041c5.29-8.617,8.84-17.847,10.64-27.861l46.725,33.375
			c1.679,0.839,3.357,1.679,5.036,1.679c2.518,0,5.036-0.839,6.715-3.357c3.357-4.197,1.679-9.233-1.679-11.751l-49.353-35.252
			l49.353-35.252c3.357-2.518,4.197-8.393,1.679-11.751c-2.518-3.357-8.393-4.197-11.751-1.679l-46.715,33.368
			c-0.085-0.446-0.192-0.888-0.284-1.332c-0.04-0.199-0.085-0.397-0.127-0.595c-0.19-0.878-0.391-1.753-0.61-2.625
			c-0.18-0.736-0.372-1.468-0.572-2.197c-0.055-0.197-0.112-0.392-0.168-0.589c-2.312-8.189-5.838-15.877-10.378-22.86
			c-0.057-0.089-0.114-0.178-0.172-0.267c-0.398-0.608-0.801-1.212-1.215-1.809c-1.632-2.402-3.368-4.736-5.229-6.969
			c1.679-1.679,3.357-4.197,5.036-6.715c22.662-29.377,64.63-84.774,102.4-84.774h0.839c26.02,0.839,44.485,11.751,55.397,31.895
			C483.335,111.699,486.692,154.505,485.013,169.613z"/>
	</g>
</g>
</svg>