<?xml version="1.0" encoding="iso-8859-1"?>
<!-- Uploaded to: SVG Repo, www.svgrepo.com, Generator: SVG Repo Mixer Tools -->
<!DOCTYPE svg PUBLIC "-//W3C//DTD SVG 1.1//EN" "http://www.w3.org/Graphics/SVG/1.1/DTD/svg11.dtd">
<svg fill="#000000" height="800px" width="800px" version="1.1" id="Capa_1" xmlns="http://www.w3.org/2000/svg" xmlns:xlink="http://www.w3.org/1999/xlink" 
	 viewBox="0 0 368.875 368.875" xml:space="preserve">
<g>
	<path d="M184.487,109.53c4.683,0,13.712-5.525,26.839-16.424c9.066-7.526,20.398-18.07,25.012-25.087
		c3.498-5.318,7.439-12.798,6.866-23.515c-0.953-17.816-15.328-31.772-32.725-31.772c-12.403,0-21.1,9.153-25.917,14.401
		c-4.57-5.165-13.343-14.401-26.164-14.401c-17.396,0-31.771,13.956-32.725,31.773c-0.58,10.857,3.642,18.622,6.869,23.518
		C139.671,78.845,174.116,109.53,184.487,109.53z"/>
	<path d="M251.939,122.271c-25.123,0-48.42,7.966-67.501,21.501c-19.081-13.536-42.378-21.501-67.501-21.501
		C52.458,122.271,0,174.729,0,239.207s52.458,116.936,116.936,116.936c25.123,0,48.42-7.965,67.501-21.501
		c19.081,13.536,42.378,21.501,67.501,21.501c64.479,0,116.936-52.457,116.936-116.936S316.417,122.271,251.939,122.271z
		 M184.438,293.925c-12.144-14.953-19.435-33.999-19.435-54.718s7.29-39.766,19.435-54.719
		c12.144,14.953,19.435,33.999,19.435,54.719S196.582,278.973,184.438,293.925z M30,239.207c0-47.937,39-86.937,86.936-86.937
		c16.41,0,31.771,4.572,44.88,12.506c-16.741,20.235-26.813,46.178-26.813,74.43c0,28.252,10.072,54.195,26.813,74.43
		c-13.109,7.934-28.47,12.506-44.88,12.506C69,326.143,30,287.144,30,239.207z M251.939,326.143
		c-16.409,0-31.771-4.572-44.88-12.506c16.741-20.235,26.813-46.178,26.813-74.43c0-28.252-10.072-54.196-26.813-74.43
		c13.109-7.934,28.47-12.506,44.88-12.506c47.937,0,86.936,39,86.936,86.937S299.875,326.143,251.939,326.143z"/>
</g>
</svg>