<svg width="151" height="150" viewBox="0 0 151 150" fill="none" xmlns="http://www.w3.org/2000/svg">
<path d="M30.2041 145.916C29.8333 145.913 29.4671 145.842 29.1204 145.709L6.74956 136.738C5.62918 136.271 4.91622 135.158 4.96312 133.944C5.0089 132.731 5.80426 131.674 6.95782 131.295L16.1828 128.389V128.388C16.8122 128.198 17.3215 127.731 17.5664 127.12L27.5297 102.282C27.857 101.347 27.5503 100.307 26.7687 99.6992C21.4779 95.8768 17.6181 90.3962 15.7996 84.1285C13.9823 77.8604 14.3119 71.1646 16.7357 65.1048L24.5545 45.5708C25.3842 43.5258 26.9909 41.8914 29.0223 41.0275C31.0536 40.1623 33.3447 40.1383 35.3943 40.9588L75.4549 57.1029L115.559 40.8659C117.609 40.0454 119.9 40.0706 121.931 40.9346C123.963 41.7986 125.57 43.4328 126.399 45.4791L134.218 65.0131C136.642 71.0717 136.971 77.7675 135.154 84.0356C133.336 90.3036 129.475 95.7842 124.185 99.6063C123.403 100.215 123.097 101.254 123.424 102.189L133.387 127.12C133.632 127.731 134.141 128.198 134.771 128.388L143.996 131.294V131.295C145.149 131.674 145.945 132.731 145.991 133.944C146.038 135.157 145.325 136.271 144.204 136.738L121.833 145.709C120.702 146.139 119.421 145.822 118.62 144.914C117.82 144.005 117.666 142.696 118.235 141.627L122.847 133.094V133.093C123.112 132.499 123.112 131.82 122.847 131.225L113.138 106.364C112.781 105.43 111.82 104.873 110.832 105.026C104.367 105.914 97.7901 104.609 92.1552 101.319C86.519 98.0273 82.1485 92.9426 79.7441 86.8761L75.5008 76.3599L71.2803 86.8761C68.8598 92.9288 64.486 97.9998 58.8519 101.28C53.219 104.561 46.6504 105.863 40.1913 104.981C39.2071 104.844 38.2572 105.396 37.8853 106.318L27.8992 131.226C27.6794 131.84 27.7298 132.519 28.0376 133.093L32.6496 141.626V141.627C33.1291 142.511 33.1188 143.578 32.621 144.451C32.1231 145.325 31.2099 145.878 30.2051 145.916L30.2041 145.916ZM111.131 101.543C112.243 101.532 113.334 101.852 114.262 102.464C115.191 103.076 115.916 103.952 116.343 104.98L126.237 129.934C126.857 131.513 126.747 133.285 125.937 134.777L122.062 141.88L141.48 134.108L133.732 131.664V131.663C132.112 131.166 130.807 129.962 130.181 128.387L120.217 103.572C119.757 102.404 119.698 101.115 120.048 99.9087C120.398 98.7025 121.14 97.6474 122.155 96.907C126.826 93.5299 130.235 88.6889 131.84 83.1524C133.445 77.6159 133.153 71.7014 131.01 66.3492L123.192 46.7923H123.193C122.708 45.5941 121.773 44.6328 120.587 44.1178C119.39 43.6223 118.046 43.6223 116.85 44.1178L77.2294 59.9153V71.4463L82.9261 85.6529C85.1303 91.1071 89.121 95.6493 94.2467 98.5368C99.3714 101.424 105.324 102.484 111.131 101.543L111.131 101.543ZM9.51758 134.13L28.9358 141.88L24.9922 134.776C24.182 133.285 24.0721 131.513 24.6924 129.933L34.6556 104.98C35.1191 103.81 35.9626 102.831 37.0498 102.2C38.1381 101.568 39.4061 101.32 40.6512 101.497C46.3539 102.279 52.1538 101.127 57.1249 98.2264C62.0951 95.3253 65.9494 90.8415 68.0734 85.4913L73.7702 71.2847V59.7537L34.1461 44.0708C32.9502 43.5764 31.6067 43.5764 30.4108 44.0708C29.2252 44.5869 28.2891 45.5483 27.8038 46.7464L20.0094 66.349C17.8568 71.698 17.5569 77.6122 19.158 83.1513C20.759 88.689 24.1683 93.5324 28.8421 96.9071C29.8571 97.6475 30.5987 98.7027 30.9489 99.9088C31.3002 101.115 31.2407 102.404 30.7796 103.572L20.8163 128.411C20.1914 129.985 18.8845 131.19 17.2652 131.686L9.51758 134.13ZM44.3193 98.0596C29.8827 98.0596 18.4203 84.0841 22.8708 69.9689C23.094 69.241 23.7692 68.7444 24.5313 68.7466H68.005C68.5795 68.7443 69.1162 69.0305 69.4355 69.5077C69.7571 69.9838 69.8257 70.5869 69.6197 71.1224L64.2227 84.6139C62.6228 88.584 59.8738 91.9839 56.3275 94.3803C52.7811 96.7756 48.5992 98.0574 44.3204 98.0598L44.3193 98.0596ZM25.869 72.2063C21.2571 93.7934 52.2752 103.847 61.0165 83.3218L65.467 72.2063H25.869ZM106.682 98.0596C102.402 98.0573 98.2197 96.7756 94.6733 94.3802C91.1278 91.9838 88.378 88.5838 86.7781 84.6138L81.3811 71.1223C81.1751 70.5867 81.2437 69.9836 81.5665 69.5075C81.8846 69.0303 82.4213 68.7442 82.9958 68.7465H126.469C127.233 68.7442 127.907 69.2409 128.13 69.9687C132.582 84.084 121.142 98.0595 106.683 98.0595L106.682 98.0596ZM85.5559 72.2063L90.0064 83.3218C98.7474 103.848 129.651 93.7691 125.154 72.2063H85.5559ZM75.5012 45.6847C75.0411 45.687 74.6005 45.5039 74.2789 45.1777L58.1349 29.0337C53.0607 23.9366 50.963 18.0095 52.3693 12.751C55.3206 2.28093 67.7753 1.70408 75.5012 9.13025C83.2271 1.70408 95.6806 2.28093 98.7248 12.7282C100.131 17.9867 98.0325 23.9137 92.9592 29.0108L76.8152 45.1549V45.1537C76.4764 45.5154 75.9956 45.7099 75.5012 45.6847ZM63.7391 7.54016C53.3375 8.11696 53.1304 19.902 60.5106 26.567L75.5012 41.5576L90.5146 26.567C103.499 13.8595 89.4309 -0.231719 76.6777 12.7301L76.6766 12.729C75.9922 13.379 74.9176 13.379 74.2321 12.729C71.5519 9.68823 67.782 7.82404 63.7391 7.54016Z" fill="black"/>
</svg>
